PathFileType	4	(X/Y/Z)	Patient4_TMGait_0pt4_03_right_02.trc.trc
DataRate	CameraRate	NumFrames	NumMarkers	Units	OrigDataRate	OrigDataStartFrame	OrigNumFrames
76.086956521739	76.086956521739	4	33	mm	76.086956521739	71	       141
Frame#	Time	Sacral			L.Shoulder			Chest			R.Shoulder			Neck			R.ASIS			L.ASIS			R.Thigh.Superior			R.Thigh.Lateral			R.Thigh.Inferior			R.Patella			L.Thigh.Superior			L.Thigh.Lateral			L.Thigh.Inferior			L.Patella			L.Shank.Superior			L.Shank.Lateral			L.Shank.Inferior			R.Shank.Superior			R.Shank.Lateral			R.Shank.Inferior			R.Heel			R.Midfoot.Superior			R.Midfoot.Lateral			R.Toe			L.Heel			L.Midfoot.Lateral			L.Midfoot.Superior			L.Toe			L.Elbow			L.Wrist			R.Elbow			R.Wrist			
		X1	Y1	Z1	X2	Y2	Z2	X3	Y3	Z3	X4	Y4	Z4	X5	Y5	Z5	X6	Y6	Z6	X7	Y7	Z7	X8	Y8	Z8	X9	Y9	Z9	X10	Y10	Z10	X11	Y11	Z11	X12	Y12	Z12	X13	Y13	Z13	X14	Y14	Z14	X15	Y15	Z15	X16	Y16	Z16	X17	Y17	Z17	X18	Y18	Z18	X19	Y19	Z19	X20	Y20	Z20	X21	Y21	Z21	X22	Y22	Z22	X23	Y23	Z23	X24	Y24	Z24	X25	Y25	Z25	X26	Y26	Z26	X27	Y27	Z27	X28	Y28	Z28	X29	Y29	Z29	X30	Y30	Z30	X31	Y31	Z31	X32	Y32	Z32	X33	Y33	Z33	

71	2.420000000000	791.789423437512	1009.171828962323	533.095366739316	943.171734179862	1439.612569240831	346.520927241318	1070.934401757162	1366.328822064996	486.255411965822	1017.692507299580	1431.280669788802	674.682946482396	947.615736468159	1493.810161530075	507.745815264458	1031.208101956129	938.654378182779	625.283462295381	990.349560238547	963.264837986995	352.636608301160	1026.281683275196	727.559703441126	601.920952407577	923.337257109719	634.401875938411	668.403502591310	982.319079817146	568.436888411055	589.189087175260	965.859059284378	485.911701762330	596.461196053039	1061.698069457524	774.392491241769	370.895542989213	1004.895674836933	644.412869904652	296.831088538747	1113.539746760880	585.263551155683	346.565131623004	1137.520987561136	517.857819049283	342.049967042262	1115.168870054202	444.831751919848	334.350329897085	1034.402389869562	321.774592238024	287.592463724510	1116.070405814750	214.651919170056	335.162322340829	929.980923907556	402.139330161903	603.062242909752	850.701205079412	304.221321468984	665.542260146541	886.575159798925	206.218075245812	601.144771225446	745.399571066359	43.639962460553	568.823727131583	917.063113445441	96.212671678302	604.067743515566	828.866605734455	36.026155709724	642.527803711208	1037.235652803971	43.085251141739	630.094519205304	1021.818071317601	43.349252317494	378.923514503423	1089.131458854077	43.358422521179	293.437600788812	1167.168983116113	114.778211050393	310.423634877041	1295.322706198057	76.198892005397	272.660568669845	799.507693139333	1113.623038811464	264.431409992529	772.559832894729	852.552138907525	277.877908763221	1159.048727009060	1113.009130980051	775.299639855334	1411.304815278037	1112.575850930467	730.898735048895	
72	2.433142857143	792.823924650572	1007.997763842531	530.187631381820	943.180669101249	1438.496400483338	343.517405468364	1070.837969197616	1365.860705593427	483.641090651766	1016.837500334666	1430.689196649682	671.948491739155	947.223270739339	1492.916231912241	504.700774528157	1032.063713291112	937.919650214202	623.249898005115	992.011136801287	962.113293938903	350.429034501029	1026.477893020396	726.523240101253	600.284815827625	922.852637142314	633.821534528702	666.685641574442	981.629579735311	567.470558681188	587.699829145795	964.527020586565	484.729138260632	594.898592979302	1063.142863761062	772.271742263240	369.839727598712	1004.877006002498	642.156676444480	297.425057975252	1113.063582052207	582.717912128698	347.519351874456	1135.757490168372	514.580304567276	343.837367932748	1112.698804589012	441.230646558077	336.103839250743	1030.260581720086	319.013859246098	290.163743090015	1110.209372371334	211.071096223198	338.475693935266	927.905454199398	401.138141281772	601.806410421299	847.775097852151	304.151957399727	664.700772774336	882.465554568420	205.647548413065	600.549852706935	740.111988262006	43.611947738654	568.850408794413	911.747703939286	96.158846502415	604.005514490567	823.559717266540	35.988127452753	642.535578516007	1031.947329503269	42.953512687380	630.120430650979	1012.974186065910	42.365672518579	382.969704686153	1080.247365455278	41.135558939812	297.370693919127	1159.930879992439	110.372643565612	314.655786331263	1287.364972738783	68.828624893198	276.688048145543	800.293327847401	1112.202465001443	261.393763165213	774.071830020382	851.083042446138	273.750838843949	1156.950670975343	1111.522062764606	772.556298945657	1409.550906632024	1109.155405924962	729.704891399563	
73	2.446285714286	794.024153427364	1006.699325260910	527.133478396058	943.298495673498	1437.309097814913	340.295365161709	1070.800514887280	1365.394823236958	480.894569456266	1015.922368760426	1430.125137886369	669.052406790261	946.861574100663	1492.020466875563	501.429499788056	1032.981887022951	937.173663626034	621.115163576437	993.797912726740	960.958141334268	348.161572131776	1026.949436197784	725.483644070647	598.489647950697	922.766870651874	633.150868555241	664.808289146785	981.351879393529	566.451756476543	585.997410482612	963.643457175733	483.419067890672	593.114676093308	1064.717096521280	770.111568187053	368.928313507792	1005.076783512192	640.113329253010	297.849197691432	1112.649680789100	580.276062361783	348.602745225511	1133.944744877230	511.353793477578	345.675800565262	1110.221762207899	437.737818000451	337.698232599292	1026.217384110848	316.401822723454	292.292337507666	1104.305158182821	207.622263876920	341.445429502986	926.208628328302	400.015972384339	600.376583182653	845.158073117229	304.059732099632	663.734156444157	878.516326171592	205.030643948003	599.858126539025	734.841232377305	43.667203483565	568.871203665608	906.460678987399	96.118492739146	603.920472511131	818.275294965955	35.986511553573	642.528121992781	1026.671851882241	42.765324013537	630.151874943094	1004.058425996023	41.379456054497	386.342873620626	1071.363091734290	39.229846963895	300.675178398284	1152.514957285841	106.373932828256	318.523346227099	1279.360257961691	62.190181815697	280.365545547057	801.813882192140	1110.417418130106	257.850047105596	776.936085431455	849.198533754762	268.892648387998	1154.247316257711	1109.808992597840	769.926045472637	1407.198138429894	1104.552071052374	728.706930739065	
74	2.459428571429	795.320087651022	1005.359767473584	523.980061014753	943.544581352394	1436.112785050238	336.883359171663	1070.833106470441	1364.962880268781	478.037983583272	1014.985140241413	1429.641330687247	666.011079063729	946.555651639862	1491.182783035094	497.959486104778	1033.923383752491	936.469483950313	618.879405818215	995.623193870670	959.863990762410	345.837766860910	1027.680671864218	724.498743439752	596.520791572752	923.093485971587	632.428940636374	662.771874570134	981.505946133473	565.422054043975	584.085281629362	963.247907010005	482.009996588015	591.134979448073	1066.349837848399	768.035824984407	368.103908571564	1005.476330303848	638.394699437644	297.986406960193	1112.306574412371	578.063012531341	349.627436089760	1132.150397024857	508.361791713814	347.367489957513	1107.858641028420	434.540692024929	338.989107113044	1022.508005634931	314.069292271713	293.792511095434	1098.648212013970	204.498730285611	343.904034653436	924.912415069109	398.816434790154	598.792750973190	842.858506601248	303.996952030109	662.650684021117	874.749557912925	204.417810986279	599.087113590511	729.597372196617	43.878580633199	568.890893039218	901.231808316111	96.107630283239	603.822162325487	813.025848156959	36.051587639894	642.505873609994	1021.417373314007	42.505130479552	630.190204446820	995.512395067038	40.459455883610	388.930558518789	1062.899459610178	37.720167880760	303.228867329078	1145.260487612138	102.999349227651	321.813950827681	1271.670531609557	56.634305022790	283.481777771446	804.131540304805	1108.322042561232	253.826266517363	781.156174707989	846.965263732362	263.361825817974	1150.955569177713	1107.925488613270	767.389013705865	1404.216936685120	1098.748348852871	727.900619309916	
